<?xml version="1.0" encoding="UTF-8"?>
<svg id="Capa_1" data-name="Capa 1" xmlns="http://www.w3.org/2000/svg" viewBox="0 0 49.44 13.41">
  <defs>
    <style>
      .cls-1 {
        fill: #fff;
      }

      .cls-2 {
        fill: #00173e;
      }

      .cls-3 {
        font-family: Calibri-BoldItalic, Calibri;
        font-size: 6.14px;
        font-style: italic;
        font-weight: 700;
      }

      .cls-3, .cls-4 {
        fill: #e16120;
      }
    </style>
  </defs>
  <path class="cls-1" d="m7.6,3.19c0,.53-.13,1.02-.39,1.46-.26.44-.61.79-1.05,1.05s-.92.27-1.46.27h-2.44v1.83H.21V.3l4.52.02c.54,0,1.02.14,1.45.39.43.26.78.6,1.03,1.03.26.43.39.92.39,1.44Zm-5.34.88h2.4c.24,0,.45-.09.62-.26.17-.17.26-.38.26-.62s-.09-.57-.26-.75c-.17-.17-.38-.26-.62-.26h-2.4v1.88Z"/>
  <path class="cls-1" d="m12.22,5.96h-2.04v1.83h-2.05V.3l4.52.02c.54,0,1.02.14,1.45.39.43.26.78.6,1.03,1.03.26.43.39.92.39,1.44s-.12.98-.37,1.41c-.24.43-.57.77-.99,1.03l1.56,2.16h-2.26l-1.24-1.83Zm-1.99-3.77v1.75h2.4c.24,0,.45-.09.62-.26.17-.17.26-.38.26-.62s-.09-.45-.26-.62c-.17-.17-.38-.26-.62-.26h-2.4Z"/>
  <path class="cls-1" d="m40.52,2.18h-4.52c-.1,0-.19.04-.27.11-.07.07-.11.26-.11.36,0,.1.04.27.11.35.08.07.16.11.26.11h2.15c.43,0,.83.11,1.19.32s.64.5.86.86c.21.36.32.75.32,1.19,0,.63-.23,1.19-.69,1.67-.49.46-1.05.7-1.68.7h-4.58v-1.89h4.54c.09,0,.18-.03.25-.11.13-.14.1-.34.1-.34,0-.06-.03-.26-.08-.31-.05-.05-.11-.07-.17-.07h-2.21c-.65,0-1.22-.24-1.72-.72-.46-.48-.7-1.05-.71-1.72.01-.66.25-1.23.72-1.71.48-.46,1.06-.69,1.72-.69l4.51.06v1.83Z"/>
  <path class="cls-1" d="m47.13.8c.64.34,1.15.8,1.53,1.37.38.57.57,1.21.57,1.9s-.19,1.33-.57,1.9c-.38.57-.89,1.03-1.53,1.37-.64.34-1.35.51-2.12.51s-1.48-.17-2.12-.51c-.64-.34-1.15-.8-1.53-1.37-.38-.57-.57-1.21-.57-1.9s.19-1.33.57-1.9c.38-.57.89-1.03,1.53-1.37.64-.34,1.35-.51,2.12-.51s1.48.17,2.12.51Zm-2.12,1.39c-.56,0-1.04.18-1.44.55-.4.37-.59.81-.59,1.33s.2.96.59,1.33c.4.37.88.55,1.44.55s1.04-.18,1.44-.55c.4-.37.59-.81.59-1.33s-.2-.96-.59-1.33c-.4-.37-.88-.55-1.44-.55Z"/>
  <text class="cls-3" transform="translate(30.91 12.54)"><tspan x="0" y="0">electric</tspan></text>
  <polygon class="cls-1" points="31.15 7.84 32.98 7.84 32.98 .37 31.15 .37 31.15 2.66 31.15 7.84"/>
  <polygon class="cls-1" points="22.86 7.79 22.86 5.96 16.14 5.96 16.14 7.79 18.19 7.79 22.86 7.79"/>
  <polygon class="cls-4" points="22.86 4.99 22.86 3.15 16.14 3.15 16.14 4.99 18.19 4.99 22.86 4.99"/>
  <polygon class="cls-2" points="31.15 7.84 31.15 7.84 31.15 7.84 31.15 7.84"/>
  <path class="cls-1" d="m26.21,2.78c.3-.38.76-.6,1.25-.6h3.09V.37h-3.9c-.54,0-1.02.17-1.46.5s-.79.79-1.05,1.35c-.11.24-.19.49-.26.75-.09.36-.13.74-.13,1.14,0,.46.06.89.18,1.29.06.2.13.39.21.57.26.56.6,1.01,1.03,1.34.43.33.91.5,1.45.51l3.92.02v-1.88h-3.13c-.46,0-.91-.2-1.21-.55h0c-.64-.73-.66-1.81-.05-2.56l.05-.06Z"/>
  <polygon class="cls-1" points="22.86 2.18 22.86 .35 16.14 .35 16.14 2.18 18.19 2.18 22.86 2.18"/>
</svg>