<?xml version="1.0" encoding="UTF-8"?>
<svg id="Capa_1" data-name="Capa 1" xmlns="http://www.w3.org/2000/svg" viewBox="0 0 49.44 13.41">
  <defs>
    <style>
      .cls-1 {
        fill: #00173e;
      }

      .cls-2 {
        fill: #022454;
      }

      .cls-3 {
        fill: #e16120;
      }
    </style>
  </defs>
  <path class="cls-2" d="m7.88,3.61c0,.52-.13,1-.38,1.43-.26.43-.6.77-1.03,1.03s-.91.26-1.43.26h-2.4v1.8H.61V.77l4.45.02c.53,0,1,.14,1.43.39.42.25.76.59,1.01,1.02.25.43.38.9.38,1.42Zm-5.25.86h2.36c.24,0,.44-.08.61-.25.17-.17.25-.37.25-.61s-.08-.56-.25-.73c-.17-.17-.37-.25-.61-.25h-2.36v1.85Z"/>
  <path class="cls-2" d="m12.42,6.33h-2.01v1.8h-2.02V.77l4.45.02c.53,0,1,.14,1.43.39.42.25.76.59,1.01,1.02.25.43.38.9.38,1.42s-.12.97-.36,1.39c-.24.42-.56.76-.97,1.02l1.54,2.12h-2.23l-1.22-1.8Zm-1.96-3.71v1.72h2.36c.24,0,.44-.08.61-.25.17-.17.25-.37.25-.61s-.08-.44-.25-.61c-.17-.17-.37-.25-.61-.25h-2.36Z"/>
  <path class="cls-2" d="m40.25,2.62h-4.44c-.1,0-.19.04-.26.11-.07.07-.11.25-.11.36,0,.1.04.27.11.34.07.07.16.11.26.11h2.11c.43,0,.82.11,1.17.32s.63.49.84.84c.21.35.31.74.31,1.17,0,.62-.23,1.17-.68,1.64-.48.46-1.03.68-1.65.68h-4.5v-1.85h4.46c.09,0,.18-.03.25-.11.13-.14.1-.34.1-.34,0-.06-.02-.25-.07-.3-.05-.05-.11-.07-.17-.07h-2.17c-.64,0-1.2-.23-1.7-.7-.46-.47-.69-1.04-.7-1.7.01-.65.25-1.21.7-1.68.47-.45,1.04-.68,1.7-.68l4.43.06v1.8Z"/>
  <path class="cls-2" d="m46.75,1.26c.63.33,1.13.78,1.5,1.35.37.56.56,1.19.56,1.87s-.19,1.31-.56,1.87c-.37.56-.87,1.01-1.5,1.35-.63.33-1.32.5-2.09.5s-1.46-.17-2.09-.5c-.63-.33-1.13-.78-1.5-1.35-.37-.56-.56-1.19-.56-1.87s.19-1.31.56-1.87c.37-.56.87-1.01,1.5-1.35.63-.33,1.32-.5,2.09-.5s1.46.17,2.09.5Zm-2.09,1.36c-.55,0-1.03.18-1.42.54-.39.36-.58.8-.58,1.31s.19.95.58,1.31c.39.36.86.54,1.42.54s1.03-.18,1.42-.54c.39-.36.58-.8.58-1.31s-.19-.95-.58-1.31c-.39-.36-.86-.54-1.42-.54Z"/>
  <g>
    <path class="cls-3" d="m35.67,11.7c-.03.16-.08.3-.15.42s-.15.22-.26.3c-.11.08-.24.14-.39.18-.15.04-.34.06-.54.06-.15,0-.28-.01-.4-.04-.12-.02-.22-.05-.3-.09-.03-.01-.05-.03-.06-.05-.01-.02-.02-.04-.02-.07,0-.01,0-.03,0-.05,0-.02,0-.05.01-.08,0-.03.01-.06.02-.09,0-.03.02-.06.03-.09.01-.03.03-.05.04-.06.02-.02.03-.02.06-.02s.05,0,.08.02c.03.01.07.03.12.05.05.02.11.03.19.05.08.01.17.02.28.02.09,0,.17,0,.24-.02s.13-.04.18-.07.09-.07.13-.12.06-.11.07-.18c.02-.11.05-.21.07-.29.02-.08.04-.14.06-.19-.03.06-.08.11-.14.17s-.13.11-.2.15c-.08.05-.16.08-.24.11-.09.03-.17.04-.26.04-.13,0-.25-.02-.34-.07-.09-.05-.17-.11-.22-.19-.06-.08-.1-.17-.12-.28-.03-.11-.04-.23-.04-.35,0-.11.01-.24.03-.37.02-.13.05-.26.1-.39s.1-.25.17-.37c.07-.12.15-.22.25-.32.1-.09.2-.16.33-.22s.26-.08.42-.08c.15,0,.27.03.39.09s.21.15.29.26l.04-.21s.03-.06.08-.08c.05-.02.13-.02.23-.02.05,0,.1,0,.13,0,.03,0,.06.01.08.02.02,0,.03.02.04.03,0,.01,0,.03,0,.05l-.49,2.44Zm-.3-1.74c-.06-.1-.13-.17-.2-.22s-.16-.07-.26-.07c-.07,0-.14.02-.2.05-.06.04-.11.08-.16.14-.05.06-.09.13-.13.2-.04.08-.07.16-.09.24-.02.08-.04.17-.05.25-.01.08-.02.16-.02.24,0,.06,0,.11.02.16s.03.09.05.12.05.06.08.08c.03.02.08.03.12.03.08,0,.16-.02.24-.07.08-.05.16-.11.23-.19.07-.08.13-.17.18-.28s.09-.22.12-.34l.07-.35Z"/>
    <path class="cls-3" d="m38.84,9.23s0,.03,0,.07c0,.03,0,.07-.02.11,0,.04-.02.09-.03.13s-.02.09-.04.12c-.01.04-.03.07-.04.09-.02.02-.03.04-.05.04-.02,0-.03,0-.05,0-.02,0-.03-.01-.05-.02s-.04-.01-.06-.02-.05,0-.08,0c-.06,0-.12.02-.19.07-.07.05-.13.11-.19.18-.06.07-.12.16-.16.26-.05.1-.08.2-.1.31l-.21,1.05s-.01.03-.02.05-.03.02-.06.03-.06.02-.11.02-.1,0-.16,0-.12,0-.16,0-.07-.01-.1-.02c-.02,0-.04-.02-.05-.03,0-.01,0-.03,0-.05l.47-2.34s.01-.03.02-.05c.01-.01.03-.02.05-.03.02,0,.05-.01.09-.02.04,0,.08,0,.14,0s.1,0,.13,0c.03,0,.06.01.08.02s.03.02.04.03c0,.01,0,.03,0,.05l-.07.37c.04-.08.09-.14.15-.21s.11-.12.18-.16c.06-.05.13-.08.19-.11.07-.03.13-.04.2-.04.03,0,.05,0,.08,0,.03,0,.05,0,.08.01.02,0,.04.01.06.02s.03.02.04.02c.01.01.02.03.02.05Z"/>
    <path class="cls-3" d="m41.91,10.05c0,.13-.01.26-.04.39-.02.13-.06.26-.11.39-.05.13-.12.25-.2.36-.08.11-.17.21-.29.29-.11.08-.24.15-.38.2-.14.05-.31.07-.49.07s-.33-.02-.46-.06-.24-.1-.32-.18c-.09-.08-.15-.18-.19-.29-.04-.12-.06-.25-.06-.4,0-.13.01-.26.04-.39.02-.13.06-.26.11-.39.05-.13.12-.25.2-.36.08-.11.17-.21.29-.3.11-.08.24-.15.38-.2.14-.05.31-.07.49-.07s.33.02.46.06c.13.04.24.1.32.18.09.08.15.18.19.29.04.12.06.25.06.4Zm-.68.04c0-.07,0-.14-.02-.2-.01-.06-.04-.1-.07-.14-.03-.04-.08-.07-.13-.09-.05-.02-.12-.03-.2-.03-.09,0-.17.02-.24.05-.07.03-.13.08-.19.14s-.1.12-.14.2c-.04.08-.07.16-.1.24-.03.08-.05.17-.06.26-.01.09-.02.17-.02.25,0,.07,0,.14.02.2.01.06.04.11.07.15.03.04.08.07.13.09.05.02.12.03.2.03.09,0,.17-.02.24-.05.07-.03.13-.08.19-.14.06-.06.1-.13.14-.2s.07-.16.1-.24.05-.17.06-.26c.01-.09.02-.17.02-.25Z"/>
    <path class="cls-3" d="m44.86,11.61s-.01.03-.02.05c-.01.01-.03.02-.05.03-.02,0-.05.01-.09.02s-.08,0-.14,0-.1,0-.13,0c-.03,0-.06-.01-.08-.02s-.03-.02-.04-.03c0-.01,0-.03,0-.05l.07-.38c-.04.06-.08.12-.14.18-.06.06-.13.12-.21.17-.08.05-.17.09-.26.12-.09.03-.19.05-.29.05-.12,0-.23-.02-.31-.05-.08-.03-.15-.08-.2-.14s-.09-.13-.11-.21c-.02-.08-.04-.17-.04-.27,0-.06,0-.12.01-.18s.02-.13.03-.19l.29-1.45s.01-.03.02-.05c.01-.01.03-.02.06-.03.03,0,.06-.01.11-.02.04,0,.1,0,.16,0s.12,0,.16,0c.04,0,.07.01.1.02s.04.02.05.03.01.03,0,.05l-.28,1.41s-.02.08-.02.12,0,.08,0,.12c0,.04,0,.08.01.11,0,.03.02.06.04.09.02.02.04.04.07.06.03.01.06.02.1.02.07,0,.15-.02.22-.07.08-.05.15-.11.22-.19.07-.08.13-.18.19-.29.06-.11.1-.23.12-.36l.2-1.01s0-.03.02-.05.03-.02.06-.03c.03,0,.06-.01.11-.02.04,0,.1,0,.16,0s.12,0,.16,0c.04,0,.07.01.1.02.02,0,.04.02.05.03s0,.03,0,.05l-.47,2.34Z"/>
    <path class="cls-3" d="m48.64,10.01c0,.11-.01.24-.03.37s-.05.26-.1.39-.1.25-.17.37-.15.23-.25.32c-.1.09-.2.16-.33.22-.12.05-.26.08-.42.08-.07,0-.14,0-.2-.02-.06-.01-.12-.03-.17-.06-.05-.03-.1-.06-.14-.09-.04-.03-.08-.07-.11-.11l-.21,1.06s-.01.03-.02.05c-.01.01-.03.03-.06.04s-.06.02-.11.02-.1,0-.16,0-.12,0-.16,0c-.04,0-.07-.01-.1-.02-.02,0-.04-.02-.05-.04,0-.01,0-.03,0-.05l.66-3.27s.03-.06.08-.08c.05-.02.12-.02.23-.02.05,0,.1,0,.13,0,.03,0,.06.01.08.02s.03.02.04.03c0,.01,0,.03,0,.05l-.07.38c.03-.06.07-.12.12-.18.06-.06.12-.12.2-.17.08-.05.17-.09.26-.13.1-.03.19-.05.3-.05.13,0,.25.02.34.07.09.05.17.11.22.19.06.08.1.17.12.28.03.11.04.22.04.35Zm-.68.06c0-.06,0-.11-.01-.16,0-.05-.03-.09-.05-.12-.02-.03-.05-.06-.08-.08-.03-.02-.08-.03-.12-.03-.08,0-.16.02-.24.07-.08.05-.15.11-.22.19-.07.08-.13.17-.19.28-.05.11-.09.22-.12.34l-.07.36c.06.1.13.17.2.22.07.05.16.07.26.07.07,0,.14-.02.2-.05.06-.03.11-.08.16-.14.05-.06.09-.13.13-.2.04-.08.07-.16.09-.24.02-.08.04-.17.05-.25s.02-.16.02-.24Z"/>
  </g>
  <polygon class="cls-2" points="22.88 2.62 22.88 .82 16.27 .82 16.27 2.62 18.29 2.62 22.88 2.62"/>
  <polygon class="cls-2" points="31.03 8.19 32.83 8.19 32.83 .84 31.03 .84 31.03 3.09 31.03 8.19"/>
  <polygon class="cls-2" points="22.88 8.14 22.88 6.33 16.27 6.33 16.27 8.14 18.29 8.14 22.88 8.14"/>
  <polygon class="cls-3" points="22.88 5.38 22.88 3.58 16.27 3.58 16.27 5.38 18.29 5.38 22.88 5.38"/>
  <polygon class="cls-1" points="31.03 8.19 31.03 8.19 31.03 8.19 31.03 8.19"/>
  <path class="cls-2" d="m26.17,3.21c.3-.37.75-.59,1.23-.59h3.04V.84h-3.83c-.53,0-1,.16-1.43.49s-.77.77-1.03,1.33c-.11.23-.19.48-.25.73-.09.35-.13.72-.13,1.12,0,.45.06.88.17,1.27.06.19.12.38.21.56.25.55.59.99,1.01,1.32.42.32.9.49,1.43.5l3.86.02v-1.85h-3.08c-.46,0-.89-.2-1.19-.54h0c-.63-.72-.65-1.78-.05-2.52l.05-.06Z"/>
</svg>