<svg _ngcontent-ng-c361010243="" id="Capa_1" data-name="Capa 1" xmlns="http://www.w3.org/2000/svg" viewBox="0 0 250 250"><defs _ngcontent-ng-c361010243=""><style _ngcontent-ng-c361010243=""> .cls-1 { fill: #09c70f; } </style></defs><path _ngcontent-ng-c361010243="" d="m62.36,187.85c2.47-9.05,4.69-17.9,7.36-26.6,1.15-3.75.83-6.76-.88-10.34-18.04-37.83,6.55-82.81,48.05-88.2,32.97-4.28,63.09,17.29,69.56,49.84,6.8,34.18-16.53,67.82-50.92,73.44-13.58,2.22-26.51.19-38.78-6.01-.98-.5-1.84-.59-2.9-.31-9.9,2.63-19.82,5.22-29.73,7.81-.49.13-.98.22-1.76.39Zm15.09-15.1c.43.29.69.12.95.05,5.69-1.5,11.4-2.97,17.08-4.5,1-.27,1.8-.17,2.7.37,11.41,6.84,23.66,9.07,36.76,6.71,27.53-4.95,46.57-32.71,41.26-60.18-5.55-28.7-32.26-46.9-60.96-41.54-22.88,4.27-40.61,24.64-41.73,47.84-.55,11.29,2.16,21.68,8.25,31.18.61.95.74,1.77.41,2.85-.84,2.76-1.55,5.56-2.31,8.35-.81,2.98-1.62,5.96-2.41,8.89Z" class="cls-1"></path><path _ngcontent-ng-c361010243="" d="m141.79,156.36c-2.63,0-4.98-.61-7.31-1.34-14.64-4.58-25.77-13.66-34.06-26.43-3.03-4.66-6.11-9.29-7.24-14.87-1.43-7.07.37-13.12,5.67-18.07,2.18-2.04,6.07-2.57,8.75-1.26,1.25.61,1.99,1.61,2.46,2.89,1.46,3.99,2.93,7.97,4.45,11.94.51,1.33.24,2.48-.56,3.51-1.08,1.38-2.29,2.66-3.41,4.01-1.66,2-1.71,2.81-.46,5.03,4.57,8.09,11.06,14.14,19.34,18.3,2.8,1.41,3.7,1.28,5.76-.99,1.45-1.59,2.88-3.21,4.21-4.9.91-1.15,1.95-1.54,3.26-.95,4.65,2.1,9.08,4.63,13.54,7.1,1.23.68,1.1,1.87.98,3.01-.71,6.6-3.5,10.08-11.67,12.59-1.25.38-2.56.46-3.71.42Z" class="cls-1"></path></svg>